<mxfile host="app.diagrams.net" modified="2023-11-13T22:28:09.375Z" agent="Mozilla/5.0 (Windows NT 10.0; Win64; x64) AppleWebKit/537.36 (KHTML, like Gecko) Chrome/119.0.0.0 Safari/537.36" etag="R7FImESthSBxapzvuHip" version="22.1.0" type="device">
  <diagram name="PÃ¡gina-1" id="DkVvcYBIbT2P-QnvVwDT">
    <mxGraphModel dx="1434" dy="759" grid="1" gridSize="10" guides="1" tooltips="1" connect="1" arrows="1" fold="1" page="1" pageScale="1" pageWidth="827" pageHeight="1169" math="0" shadow="0">
      <root>
        <mxCell id="0" />
        <mxCell id="1" parent="0" />
        <mxCell id="80fUx_5_ATNKXqXZNWFb-98" value="Shape" style="swimlane;fontStyle=1;align=center;verticalAlign=top;childLayout=stackLayout;horizontal=1;startSize=26;horizontalStack=0;resizeParent=1;resizeParentMax=0;resizeLast=0;collapsible=1;marginBottom=0;whiteSpace=wrap;html=1;" vertex="1" parent="1">
          <mxGeometry x="60" y="170" width="160" height="140" as="geometry" />
        </mxCell>
        <mxCell id="80fUx_5_ATNKXqXZNWFb-99" value="- color: String" style="text;strokeColor=none;fillColor=none;align=left;verticalAlign=top;spacingLeft=4;spacingRight=4;overflow=hidden;rotatable=0;points=[[0,0.5],[1,0.5]];portConstraint=eastwest;whiteSpace=wrap;html=1;" vertex="1" parent="80fUx_5_ATNKXqXZNWFb-98">
          <mxGeometry y="26" width="160" height="26" as="geometry" />
        </mxCell>
        <mxCell id="80fUx_5_ATNKXqXZNWFb-100" value="" style="line;strokeWidth=1;fillColor=none;align=left;verticalAlign=middle;spacingTop=-1;spacingLeft=3;spacingRight=3;rotatable=0;labelPosition=right;points=[];portConstraint=eastwest;strokeColor=inherit;" vertex="1" parent="80fUx_5_ATNKXqXZNWFb-98">
          <mxGeometry y="52" width="160" height="8" as="geometry" />
        </mxCell>
        <mxCell id="80fUx_5_ATNKXqXZNWFb-101" value="+ Shape(String)&lt;br&gt;+ getColor(): String&lt;br&gt;+ setColor(String):void&lt;br&gt;+ draw(): void" style="text;strokeColor=none;fillColor=none;align=left;verticalAlign=top;spacingLeft=4;spacingRight=4;overflow=hidden;rotatable=0;points=[[0,0.5],[1,0.5]];portConstraint=eastwest;whiteSpace=wrap;html=1;" vertex="1" parent="80fUx_5_ATNKXqXZNWFb-98">
          <mxGeometry y="60" width="160" height="80" as="geometry" />
        </mxCell>
        <mxCell id="80fUx_5_ATNKXqXZNWFb-102" value="Circle" style="swimlane;fontStyle=1;align=center;verticalAlign=top;childLayout=stackLayout;horizontal=1;startSize=26;horizontalStack=0;resizeParent=1;resizeParentMax=0;resizeLast=0;collapsible=1;marginBottom=0;whiteSpace=wrap;html=1;" vertex="1" parent="1">
          <mxGeometry x="250" y="350" width="160" height="140" as="geometry" />
        </mxCell>
        <mxCell id="80fUx_5_ATNKXqXZNWFb-103" value="- ray: float" style="text;strokeColor=none;fillColor=none;align=left;verticalAlign=top;spacingLeft=4;spacingRight=4;overflow=hidden;rotatable=0;points=[[0,0.5],[1,0.5]];portConstraint=eastwest;whiteSpace=wrap;html=1;" vertex="1" parent="80fUx_5_ATNKXqXZNWFb-102">
          <mxGeometry y="26" width="160" height="26" as="geometry" />
        </mxCell>
        <mxCell id="80fUx_5_ATNKXqXZNWFb-104" value="" style="line;strokeWidth=1;fillColor=none;align=left;verticalAlign=middle;spacingTop=-1;spacingLeft=3;spacingRight=3;rotatable=0;labelPosition=right;points=[];portConstraint=eastwest;strokeColor=inherit;" vertex="1" parent="80fUx_5_ATNKXqXZNWFb-102">
          <mxGeometry y="52" width="160" height="8" as="geometry" />
        </mxCell>
        <mxCell id="80fUx_5_ATNKXqXZNWFb-105" value="+ Circle(float, String)&lt;br&gt;+ getRay(): float&lt;br&gt;+ setRay(float): void" style="text;strokeColor=none;fillColor=none;align=left;verticalAlign=top;spacingLeft=4;spacingRight=4;overflow=hidden;rotatable=0;points=[[0,0.5],[1,0.5]];portConstraint=eastwest;whiteSpace=wrap;html=1;" vertex="1" parent="80fUx_5_ATNKXqXZNWFb-102">
          <mxGeometry y="60" width="160" height="80" as="geometry" />
        </mxCell>
        <mxCell id="80fUx_5_ATNKXqXZNWFb-106" value="Rectangle" style="swimlane;fontStyle=1;align=center;verticalAlign=top;childLayout=stackLayout;horizontal=1;startSize=26;horizontalStack=0;resizeParent=1;resizeParentMax=0;resizeLast=0;collapsible=1;marginBottom=0;whiteSpace=wrap;html=1;" vertex="1" parent="1">
          <mxGeometry x="430" y="352" width="160" height="140" as="geometry" />
        </mxCell>
        <mxCell id="80fUx_5_ATNKXqXZNWFb-108" value="" style="line;strokeWidth=1;fillColor=none;align=left;verticalAlign=middle;spacingTop=-1;spacingLeft=3;spacingRight=3;rotatable=0;labelPosition=right;points=[];portConstraint=eastwest;strokeColor=inherit;" vertex="1" parent="80fUx_5_ATNKXqXZNWFb-106">
          <mxGeometry y="26" width="160" height="8" as="geometry" />
        </mxCell>
        <mxCell id="80fUx_5_ATNKXqXZNWFb-107" value="- base: float" style="text;strokeColor=none;fillColor=none;align=left;verticalAlign=top;spacingLeft=4;spacingRight=4;overflow=hidden;rotatable=0;points=[[0,0.5],[1,0.5]];portConstraint=eastwest;whiteSpace=wrap;html=1;" vertex="1" parent="80fUx_5_ATNKXqXZNWFb-106">
          <mxGeometry y="34" width="160" height="26" as="geometry" />
        </mxCell>
        <mxCell id="80fUx_5_ATNKXqXZNWFb-109" value="+ Rectangle(float, String)&lt;br&gt;+ getBase(): float&lt;br&gt;+ setBase(float): void" style="text;strokeColor=none;fillColor=none;align=left;verticalAlign=top;spacingLeft=4;spacingRight=4;overflow=hidden;rotatable=0;points=[[0,0.5],[1,0.5]];portConstraint=eastwest;whiteSpace=wrap;html=1;" vertex="1" parent="80fUx_5_ATNKXqXZNWFb-106">
          <mxGeometry y="60" width="160" height="80" as="geometry" />
        </mxCell>
        <mxCell id="80fUx_5_ATNKXqXZNWFb-110" value="Square" style="swimlane;fontStyle=1;align=center;verticalAlign=top;childLayout=stackLayout;horizontal=1;startSize=26;horizontalStack=0;resizeParent=1;resizeParentMax=0;resizeLast=0;collapsible=1;marginBottom=0;whiteSpace=wrap;html=1;" vertex="1" parent="1">
          <mxGeometry x="610" y="350" width="160" height="140" as="geometry" />
        </mxCell>
        <mxCell id="80fUx_5_ATNKXqXZNWFb-111" value="- height: float" style="text;strokeColor=none;fillColor=none;align=left;verticalAlign=top;spacingLeft=4;spacingRight=4;overflow=hidden;rotatable=0;points=[[0,0.5],[1,0.5]];portConstraint=eastwest;whiteSpace=wrap;html=1;" vertex="1" parent="80fUx_5_ATNKXqXZNWFb-110">
          <mxGeometry y="26" width="160" height="26" as="geometry" />
        </mxCell>
        <mxCell id="80fUx_5_ATNKXqXZNWFb-112" value="" style="line;strokeWidth=1;fillColor=none;align=left;verticalAlign=middle;spacingTop=-1;spacingLeft=3;spacingRight=3;rotatable=0;labelPosition=right;points=[];portConstraint=eastwest;strokeColor=inherit;" vertex="1" parent="80fUx_5_ATNKXqXZNWFb-110">
          <mxGeometry y="52" width="160" height="8" as="geometry" />
        </mxCell>
        <mxCell id="80fUx_5_ATNKXqXZNWFb-113" value="+ Square(float, String)&lt;br&gt;+ getHeight(): float&lt;br&gt;+ setHeight(float): void" style="text;strokeColor=none;fillColor=none;align=left;verticalAlign=top;spacingLeft=4;spacingRight=4;overflow=hidden;rotatable=0;points=[[0,0.5],[1,0.5]];portConstraint=eastwest;whiteSpace=wrap;html=1;" vertex="1" parent="80fUx_5_ATNKXqXZNWFb-110">
          <mxGeometry y="60" width="160" height="80" as="geometry" />
        </mxCell>
        <mxCell id="80fUx_5_ATNKXqXZNWFb-123" value="RedCircle" style="swimlane;fontStyle=1;align=center;verticalAlign=top;childLayout=stackLayout;horizontal=1;startSize=26;horizontalStack=0;resizeParent=1;resizeParentMax=0;resizeLast=0;collapsible=1;marginBottom=0;whiteSpace=wrap;html=1;" vertex="1" parent="1">
          <mxGeometry x="240" y="140" width="160" height="90" as="geometry" />
        </mxCell>
        <mxCell id="80fUx_5_ATNKXqXZNWFb-124" value="+ RedCircle(float)&lt;br&gt;+ draw(): void" style="text;strokeColor=none;fillColor=none;align=left;verticalAlign=top;spacingLeft=4;spacingRight=4;overflow=hidden;rotatable=0;points=[[0,0.5],[1,0.5]];portConstraint=eastwest;whiteSpace=wrap;html=1;" vertex="1" parent="80fUx_5_ATNKXqXZNWFb-123">
          <mxGeometry y="26" width="160" height="64" as="geometry" />
        </mxCell>
        <mxCell id="80fUx_5_ATNKXqXZNWFb-125" value="" style="line;strokeWidth=1;fillColor=none;align=left;verticalAlign=middle;spacingTop=-1;spacingLeft=3;spacingRight=3;rotatable=0;labelPosition=right;points=[];portConstraint=eastwest;strokeColor=inherit;" vertex="1" parent="80fUx_5_ATNKXqXZNWFb-123">
          <mxGeometry y="90" width="160" as="geometry" />
        </mxCell>
        <mxCell id="80fUx_5_ATNKXqXZNWFb-178" style="edgeStyle=orthogonalEdgeStyle;rounded=0;orthogonalLoop=1;jettySize=auto;html=1;entryX=0.5;entryY=0;entryDx=0;entryDy=0;" edge="1" parent="1" source="80fUx_5_ATNKXqXZNWFb-127" target="80fUx_5_ATNKXqXZNWFb-106">
          <mxGeometry relative="1" as="geometry" />
        </mxCell>
        <mxCell id="80fUx_5_ATNKXqXZNWFb-127" value="RedRectangle" style="swimlane;fontStyle=1;align=center;verticalAlign=top;childLayout=stackLayout;horizontal=1;startSize=26;horizontalStack=0;resizeParent=1;resizeParentMax=0;resizeLast=0;collapsible=1;marginBottom=0;whiteSpace=wrap;html=1;" vertex="1" parent="1">
          <mxGeometry x="430" y="160" width="160" height="70" as="geometry" />
        </mxCell>
        <mxCell id="80fUx_5_ATNKXqXZNWFb-128" value="+ RedRectangle(float)&lt;br&gt;+ draw(): void" style="text;strokeColor=none;fillColor=none;align=left;verticalAlign=top;spacingLeft=4;spacingRight=4;overflow=hidden;rotatable=0;points=[[0,0.5],[1,0.5]];portConstraint=eastwest;whiteSpace=wrap;html=1;" vertex="1" parent="80fUx_5_ATNKXqXZNWFb-127">
          <mxGeometry y="26" width="160" height="44" as="geometry" />
        </mxCell>
        <mxCell id="80fUx_5_ATNKXqXZNWFb-129" value="" style="line;strokeWidth=1;fillColor=none;align=left;verticalAlign=middle;spacingTop=-1;spacingLeft=3;spacingRight=3;rotatable=0;labelPosition=right;points=[];portConstraint=eastwest;strokeColor=inherit;" vertex="1" parent="80fUx_5_ATNKXqXZNWFb-127">
          <mxGeometry y="70" width="160" as="geometry" />
        </mxCell>
        <mxCell id="80fUx_5_ATNKXqXZNWFb-130" value="RedSquare" style="swimlane;fontStyle=1;align=center;verticalAlign=top;childLayout=stackLayout;horizontal=1;startSize=26;horizontalStack=0;resizeParent=1;resizeParentMax=0;resizeLast=0;collapsible=1;marginBottom=0;whiteSpace=wrap;html=1;" vertex="1" parent="1">
          <mxGeometry x="630" y="160" width="160" height="70" as="geometry" />
        </mxCell>
        <mxCell id="80fUx_5_ATNKXqXZNWFb-131" value="+ RedCircle(float)&lt;br&gt;+ draw(): void" style="text;strokeColor=none;fillColor=none;align=left;verticalAlign=top;spacingLeft=4;spacingRight=4;overflow=hidden;rotatable=0;points=[[0,0.5],[1,0.5]];portConstraint=eastwest;whiteSpace=wrap;html=1;" vertex="1" parent="80fUx_5_ATNKXqXZNWFb-130">
          <mxGeometry y="26" width="160" height="44" as="geometry" />
        </mxCell>
        <mxCell id="80fUx_5_ATNKXqXZNWFb-132" value="" style="line;strokeWidth=1;fillColor=none;align=left;verticalAlign=middle;spacingTop=-1;spacingLeft=3;spacingRight=3;rotatable=0;labelPosition=right;points=[];portConstraint=eastwest;strokeColor=inherit;" vertex="1" parent="80fUx_5_ATNKXqXZNWFb-130">
          <mxGeometry y="70" width="160" as="geometry" />
        </mxCell>
        <mxCell id="80fUx_5_ATNKXqXZNWFb-133" value="BlueCircle" style="swimlane;fontStyle=1;align=center;verticalAlign=top;childLayout=stackLayout;horizontal=1;startSize=26;horizontalStack=0;resizeParent=1;resizeParentMax=0;resizeLast=0;collapsible=1;marginBottom=0;whiteSpace=wrap;html=1;" vertex="1" parent="1">
          <mxGeometry x="250" y="570" width="160" height="70" as="geometry" />
        </mxCell>
        <mxCell id="80fUx_5_ATNKXqXZNWFb-134" value="+ BlueCircle(float)&lt;br&gt;+ draw(): void" style="text;strokeColor=none;fillColor=none;align=left;verticalAlign=top;spacingLeft=4;spacingRight=4;overflow=hidden;rotatable=0;points=[[0,0.5],[1,0.5]];portConstraint=eastwest;whiteSpace=wrap;html=1;" vertex="1" parent="80fUx_5_ATNKXqXZNWFb-133">
          <mxGeometry y="26" width="160" height="44" as="geometry" />
        </mxCell>
        <mxCell id="80fUx_5_ATNKXqXZNWFb-135" value="" style="line;strokeWidth=1;fillColor=none;align=left;verticalAlign=middle;spacingTop=-1;spacingLeft=3;spacingRight=3;rotatable=0;labelPosition=right;points=[];portConstraint=eastwest;strokeColor=inherit;" vertex="1" parent="80fUx_5_ATNKXqXZNWFb-133">
          <mxGeometry y="70" width="160" as="geometry" />
        </mxCell>
        <mxCell id="80fUx_5_ATNKXqXZNWFb-136" value="BlueRectangle" style="swimlane;fontStyle=1;align=center;verticalAlign=top;childLayout=stackLayout;horizontal=1;startSize=26;horizontalStack=0;resizeParent=1;resizeParentMax=0;resizeLast=0;collapsible=1;marginBottom=0;whiteSpace=wrap;html=1;" vertex="1" parent="1">
          <mxGeometry x="430" y="570" width="160" height="72" as="geometry" />
        </mxCell>
        <mxCell id="80fUx_5_ATNKXqXZNWFb-137" value="+ BlueRectangle(float)&lt;br&gt;+ draw(): void" style="text;strokeColor=none;fillColor=none;align=left;verticalAlign=top;spacingLeft=4;spacingRight=4;overflow=hidden;rotatable=0;points=[[0,0.5],[1,0.5]];portConstraint=eastwest;whiteSpace=wrap;html=1;" vertex="1" parent="80fUx_5_ATNKXqXZNWFb-136">
          <mxGeometry y="26" width="160" height="44" as="geometry" />
        </mxCell>
        <mxCell id="80fUx_5_ATNKXqXZNWFb-138" value="" style="line;strokeWidth=1;fillColor=none;align=left;verticalAlign=middle;spacingTop=-1;spacingLeft=3;spacingRight=3;rotatable=0;labelPosition=right;points=[];portConstraint=eastwest;strokeColor=inherit;" vertex="1" parent="80fUx_5_ATNKXqXZNWFb-136">
          <mxGeometry y="70" width="160" height="2" as="geometry" />
        </mxCell>
        <mxCell id="80fUx_5_ATNKXqXZNWFb-139" value="BlueSquare" style="swimlane;fontStyle=1;align=center;verticalAlign=top;childLayout=stackLayout;horizontal=1;startSize=26;horizontalStack=0;resizeParent=1;resizeParentMax=0;resizeLast=0;collapsible=1;marginBottom=0;whiteSpace=wrap;html=1;" vertex="1" parent="1">
          <mxGeometry x="610" y="570" width="160" height="70" as="geometry" />
        </mxCell>
        <mxCell id="80fUx_5_ATNKXqXZNWFb-140" value="+ BlueSquare)float)&lt;br&gt;+ draw(): void" style="text;strokeColor=none;fillColor=none;align=left;verticalAlign=top;spacingLeft=4;spacingRight=4;overflow=hidden;rotatable=0;points=[[0,0.5],[1,0.5]];portConstraint=eastwest;whiteSpace=wrap;html=1;" vertex="1" parent="80fUx_5_ATNKXqXZNWFb-139">
          <mxGeometry y="26" width="160" height="44" as="geometry" />
        </mxCell>
        <mxCell id="80fUx_5_ATNKXqXZNWFb-141" value="" style="line;strokeWidth=1;fillColor=none;align=left;verticalAlign=middle;spacingTop=-1;spacingLeft=3;spacingRight=3;rotatable=0;labelPosition=right;points=[];portConstraint=eastwest;strokeColor=inherit;" vertex="1" parent="80fUx_5_ATNKXqXZNWFb-139">
          <mxGeometry y="70" width="160" as="geometry" />
        </mxCell>
        <mxCell id="80fUx_5_ATNKXqXZNWFb-142" value="ShapeBlueFactory" style="swimlane;fontStyle=1;align=center;verticalAlign=top;childLayout=stackLayout;horizontal=1;startSize=26;horizontalStack=0;resizeParent=1;resizeParentMax=0;resizeLast=0;collapsible=1;marginBottom=0;whiteSpace=wrap;html=1;" vertex="1" parent="1">
          <mxGeometry x="850" y="648" width="180" height="104" as="geometry" />
        </mxCell>
        <mxCell id="80fUx_5_ATNKXqXZNWFb-143" value="+ getCircle(float): Shape&lt;br&gt;+ getRectangle(float): Shape&lt;br&gt;+ getSquare(float): Shape" style="text;strokeColor=none;fillColor=none;align=left;verticalAlign=top;spacingLeft=4;spacingRight=4;overflow=hidden;rotatable=0;points=[[0,0.5],[1,0.5]];portConstraint=eastwest;whiteSpace=wrap;html=1;" vertex="1" parent="80fUx_5_ATNKXqXZNWFb-142">
          <mxGeometry y="26" width="180" height="54" as="geometry" />
        </mxCell>
        <mxCell id="80fUx_5_ATNKXqXZNWFb-144" value="" style="line;strokeWidth=1;fillColor=none;align=left;verticalAlign=middle;spacingTop=-1;spacingLeft=3;spacingRight=3;rotatable=0;labelPosition=right;points=[];portConstraint=eastwest;strokeColor=inherit;" vertex="1" parent="80fUx_5_ATNKXqXZNWFb-142">
          <mxGeometry y="80" width="180" height="24" as="geometry" />
        </mxCell>
        <mxCell id="80fUx_5_ATNKXqXZNWFb-145" value="RedCircle" style="swimlane;fontStyle=1;align=center;verticalAlign=top;childLayout=stackLayout;horizontal=1;startSize=26;horizontalStack=0;resizeParent=1;resizeParentMax=0;resizeLast=0;collapsible=1;marginBottom=0;whiteSpace=wrap;html=1;" vertex="1" parent="1">
          <mxGeometry x="850" y="20" width="160" height="78" as="geometry" />
        </mxCell>
        <mxCell id="80fUx_5_ATNKXqXZNWFb-146" value="+ RedCircle(float)&lt;br&gt;+ draw(): void" style="text;strokeColor=none;fillColor=none;align=left;verticalAlign=top;spacingLeft=4;spacingRight=4;overflow=hidden;rotatable=0;points=[[0,0.5],[1,0.5]];portConstraint=eastwest;whiteSpace=wrap;html=1;" vertex="1" parent="80fUx_5_ATNKXqXZNWFb-145">
          <mxGeometry y="26" width="160" height="44" as="geometry" />
        </mxCell>
        <mxCell id="80fUx_5_ATNKXqXZNWFb-147" value="" style="line;strokeWidth=1;fillColor=none;align=left;verticalAlign=middle;spacingTop=-1;spacingLeft=3;spacingRight=3;rotatable=0;labelPosition=right;points=[];portConstraint=eastwest;strokeColor=inherit;" vertex="1" parent="80fUx_5_ATNKXqXZNWFb-145">
          <mxGeometry y="70" width="160" height="8" as="geometry" />
        </mxCell>
        <mxCell id="80fUx_5_ATNKXqXZNWFb-148" value="AbstractFactory" style="swimlane;fontStyle=1;align=center;verticalAlign=top;childLayout=stackLayout;horizontal=1;startSize=26;horizontalStack=0;resizeParent=1;resizeParentMax=0;resizeLast=0;collapsible=1;marginBottom=0;whiteSpace=wrap;html=1;" vertex="1" parent="1">
          <mxGeometry x="850" y="381" width="180" height="82" as="geometry" />
        </mxCell>
        <mxCell id="80fUx_5_ATNKXqXZNWFb-149" value="+ getCircle(float): Shape&lt;br&gt;+ getRectangle(float): Shape&lt;br&gt;+ getSquare(float): Shape" style="text;strokeColor=none;fillColor=none;align=left;verticalAlign=top;spacingLeft=4;spacingRight=4;overflow=hidden;rotatable=0;points=[[0,0.5],[1,0.5]];portConstraint=eastwest;whiteSpace=wrap;html=1;" vertex="1" parent="80fUx_5_ATNKXqXZNWFb-148">
          <mxGeometry y="26" width="180" height="54" as="geometry" />
        </mxCell>
        <mxCell id="80fUx_5_ATNKXqXZNWFb-150" value="" style="line;strokeWidth=1;fillColor=none;align=left;verticalAlign=middle;spacingTop=-1;spacingLeft=3;spacingRight=3;rotatable=0;labelPosition=right;points=[];portConstraint=eastwest;strokeColor=inherit;" vertex="1" parent="80fUx_5_ATNKXqXZNWFb-148">
          <mxGeometry y="80" width="180" height="2" as="geometry" />
        </mxCell>
        <mxCell id="80fUx_5_ATNKXqXZNWFb-151" value="FactoryProducer" style="swimlane;fontStyle=1;align=center;verticalAlign=top;childLayout=stackLayout;horizontal=1;startSize=26;horizontalStack=0;resizeParent=1;resizeParentMax=0;resizeLast=0;collapsible=1;marginBottom=0;whiteSpace=wrap;html=1;" vertex="1" parent="1">
          <mxGeometry x="1061" y="180" width="180" height="70" as="geometry" />
        </mxCell>
        <mxCell id="80fUx_5_ATNKXqXZNWFb-152" value="+ getFactory(String): AbstractFactory" style="text;strokeColor=none;fillColor=none;align=left;verticalAlign=top;spacingLeft=4;spacingRight=4;overflow=hidden;rotatable=0;points=[[0,0.5],[1,0.5]];portConstraint=eastwest;whiteSpace=wrap;html=1;" vertex="1" parent="80fUx_5_ATNKXqXZNWFb-151">
          <mxGeometry y="26" width="180" height="44" as="geometry" />
        </mxCell>
        <mxCell id="80fUx_5_ATNKXqXZNWFb-153" value="" style="line;strokeWidth=1;fillColor=none;align=left;verticalAlign=middle;spacingTop=-1;spacingLeft=3;spacingRight=3;rotatable=0;labelPosition=right;points=[];portConstraint=eastwest;strokeColor=inherit;" vertex="1" parent="80fUx_5_ATNKXqXZNWFb-151">
          <mxGeometry y="70" width="180" as="geometry" />
        </mxCell>
        <mxCell id="80fUx_5_ATNKXqXZNWFb-183" value="&lt;br&gt;" style="html=1;verticalAlign=bottom;endArrow=open;dashed=1;endSize=8;curved=0;rounded=0;" edge="1" parent="80fUx_5_ATNKXqXZNWFb-151">
          <mxGeometry relative="1" as="geometry">
            <mxPoint x="9" y="70" as="sourcePoint" />
            <mxPoint x="-61" y="200" as="targetPoint" />
          </mxGeometry>
        </mxCell>
        <mxCell id="80fUx_5_ATNKXqXZNWFb-155" value="Principal" style="swimlane;fontStyle=1;align=center;verticalAlign=top;childLayout=stackLayout;horizontal=1;startSize=26;horizontalStack=0;resizeParent=1;resizeParentMax=0;resizeLast=0;collapsible=1;marginBottom=0;whiteSpace=wrap;html=1;" vertex="1" parent="1">
          <mxGeometry x="1070" y="507" width="180" height="72" as="geometry" />
        </mxCell>
        <mxCell id="80fUx_5_ATNKXqXZNWFb-156" value="+ main(String[]): void" style="text;strokeColor=none;fillColor=none;align=left;verticalAlign=top;spacingLeft=4;spacingRight=4;overflow=hidden;rotatable=0;points=[[0,0.5],[1,0.5]];portConstraint=eastwest;whiteSpace=wrap;html=1;" vertex="1" parent="80fUx_5_ATNKXqXZNWFb-155">
          <mxGeometry y="26" width="180" height="44" as="geometry" />
        </mxCell>
        <mxCell id="80fUx_5_ATNKXqXZNWFb-157" value="" style="line;strokeWidth=1;fillColor=none;align=left;verticalAlign=middle;spacingTop=-1;spacingLeft=3;spacingRight=3;rotatable=0;labelPosition=right;points=[];portConstraint=eastwest;strokeColor=inherit;" vertex="1" parent="80fUx_5_ATNKXqXZNWFb-155">
          <mxGeometry y="70" width="180" height="2" as="geometry" />
        </mxCell>
        <mxCell id="80fUx_5_ATNKXqXZNWFb-158" value="" style="html=1;verticalAlign=bottom;endArrow=open;dashed=1;endSize=8;curved=0;rounded=0;entryX=0.669;entryY=0.99;entryDx=0;entryDy=0;entryPerimeter=0;" edge="1" parent="1" target="80fUx_5_ATNKXqXZNWFb-101">
          <mxGeometry relative="1" as="geometry">
            <mxPoint x="850" y="710" as="sourcePoint" />
            <mxPoint x="200" y="710" as="targetPoint" />
            <Array as="points">
              <mxPoint x="170" y="710" />
            </Array>
          </mxGeometry>
        </mxCell>
        <mxCell id="80fUx_5_ATNKXqXZNWFb-164" value="&lt;br&gt;" style="html=1;verticalAlign=bottom;endArrow=open;dashed=1;endSize=8;curved=0;rounded=0;exitX=0.5;exitY=1;exitDx=0;exitDy=0;entryX=0.322;entryY=1.004;entryDx=0;entryDy=0;entryPerimeter=0;" edge="1" parent="1" source="80fUx_5_ATNKXqXZNWFb-155" target="80fUx_5_ATNKXqXZNWFb-101">
          <mxGeometry relative="1" as="geometry">
            <mxPoint x="1200" y="680" as="sourcePoint" />
            <mxPoint x="1160" y="680" as="targetPoint" />
            <Array as="points">
              <mxPoint x="1160" y="790" />
              <mxPoint x="110" y="790" />
            </Array>
          </mxGeometry>
        </mxCell>
        <mxCell id="80fUx_5_ATNKXqXZNWFb-166" value="&lt;br&gt;" style="html=1;verticalAlign=bottom;endArrow=open;dashed=1;endSize=8;curved=0;rounded=0;entryX=0.641;entryY=1.014;entryDx=0;entryDy=0;entryPerimeter=0;" edge="1" parent="1" target="80fUx_5_ATNKXqXZNWFb-138">
          <mxGeometry relative="1" as="geometry">
            <mxPoint x="850" y="680" as="sourcePoint" />
            <mxPoint x="770" y="680" as="targetPoint" />
            <Array as="points">
              <mxPoint x="533" y="680" />
            </Array>
          </mxGeometry>
        </mxCell>
        <mxCell id="80fUx_5_ATNKXqXZNWFb-167" value="&lt;br&gt;" style="html=1;verticalAlign=bottom;endArrow=open;dashed=1;endSize=8;curved=0;rounded=0;entryX=0.398;entryY=0.875;entryDx=0;entryDy=0;entryPerimeter=0;exitX=-0.004;exitY=0.344;exitDx=0;exitDy=0;exitPerimeter=0;" edge="1" parent="1" source="80fUx_5_ATNKXqXZNWFb-143" target="80fUx_5_ATNKXqXZNWFb-135">
          <mxGeometry x="-0.0009" relative="1" as="geometry">
            <mxPoint x="850" y="730" as="sourcePoint" />
            <mxPoint x="770" y="730" as="targetPoint" />
            <Array as="points">
              <mxPoint x="314" y="693" />
            </Array>
            <mxPoint as="offset" />
          </mxGeometry>
        </mxCell>
        <mxCell id="80fUx_5_ATNKXqXZNWFb-168" value="&lt;br&gt;" style="html=1;verticalAlign=bottom;endArrow=open;dashed=1;endSize=8;curved=0;rounded=0;entryX=0.94;entryY=1.014;entryDx=0;entryDy=0;entryPerimeter=0;" edge="1" parent="1" target="80fUx_5_ATNKXqXZNWFb-141">
          <mxGeometry relative="1" as="geometry">
            <mxPoint x="850" y="670" as="sourcePoint" />
            <mxPoint x="770" y="670" as="targetPoint" />
          </mxGeometry>
        </mxCell>
        <mxCell id="80fUx_5_ATNKXqXZNWFb-169" value="" style="endArrow=classic;html=1;rounded=0;entryX=0.44;entryY=1.029;entryDx=0;entryDy=0;entryPerimeter=0;" edge="1" parent="1" target="80fUx_5_ATNKXqXZNWFb-149">
          <mxGeometry width="50" height="50" relative="1" as="geometry">
            <mxPoint x="930" y="648" as="sourcePoint" />
            <mxPoint x="930" y="470" as="targetPoint" />
          </mxGeometry>
        </mxCell>
        <mxCell id="80fUx_5_ATNKXqXZNWFb-173" style="edgeStyle=orthogonalEdgeStyle;rounded=0;orthogonalLoop=1;jettySize=auto;html=1;entryX=0.5;entryY=1;entryDx=0;entryDy=0;entryPerimeter=0;" edge="1" parent="1" source="80fUx_5_ATNKXqXZNWFb-139" target="80fUx_5_ATNKXqXZNWFb-113">
          <mxGeometry relative="1" as="geometry" />
        </mxCell>
        <mxCell id="80fUx_5_ATNKXqXZNWFb-174" style="edgeStyle=orthogonalEdgeStyle;rounded=0;orthogonalLoop=1;jettySize=auto;html=1;" edge="1" parent="1" source="80fUx_5_ATNKXqXZNWFb-136">
          <mxGeometry relative="1" as="geometry">
            <mxPoint x="510" y="490" as="targetPoint" />
            <Array as="points">
              <mxPoint x="510" y="520" />
              <mxPoint x="510" y="520" />
            </Array>
          </mxGeometry>
        </mxCell>
        <mxCell id="80fUx_5_ATNKXqXZNWFb-175" style="edgeStyle=orthogonalEdgeStyle;rounded=0;orthogonalLoop=1;jettySize=auto;html=1;" edge="1" parent="1" source="80fUx_5_ATNKXqXZNWFb-133">
          <mxGeometry relative="1" as="geometry">
            <mxPoint x="329" y="490" as="targetPoint" />
            <Array as="points">
              <mxPoint x="330" y="530" />
              <mxPoint x="329" y="494" />
            </Array>
          </mxGeometry>
        </mxCell>
        <mxCell id="80fUx_5_ATNKXqXZNWFb-177" style="edgeStyle=orthogonalEdgeStyle;rounded=0;orthogonalLoop=1;jettySize=auto;html=1;entryX=0.44;entryY=0.002;entryDx=0;entryDy=0;entryPerimeter=0;" edge="1" parent="1" source="80fUx_5_ATNKXqXZNWFb-123" target="80fUx_5_ATNKXqXZNWFb-102">
          <mxGeometry relative="1" as="geometry" />
        </mxCell>
        <mxCell id="80fUx_5_ATNKXqXZNWFb-179" style="edgeStyle=orthogonalEdgeStyle;rounded=0;orthogonalLoop=1;jettySize=auto;html=1;exitX=0.5;exitY=1;exitDx=0;exitDy=0;entryX=0.62;entryY=0.01;entryDx=0;entryDy=0;entryPerimeter=0;" edge="1" parent="1" source="80fUx_5_ATNKXqXZNWFb-130" target="80fUx_5_ATNKXqXZNWFb-110">
          <mxGeometry relative="1" as="geometry" />
        </mxCell>
        <mxCell id="80fUx_5_ATNKXqXZNWFb-180" style="edgeStyle=orthogonalEdgeStyle;rounded=0;orthogonalLoop=1;jettySize=auto;html=1;entryX=0.446;entryY=0.018;entryDx=0;entryDy=0;entryPerimeter=0;" edge="1" parent="1" source="80fUx_5_ATNKXqXZNWFb-145" target="80fUx_5_ATNKXqXZNWFb-148">
          <mxGeometry relative="1" as="geometry" />
        </mxCell>
        <mxCell id="80fUx_5_ATNKXqXZNWFb-181" value="&lt;br&gt;" style="html=1;verticalAlign=bottom;endArrow=open;dashed=1;endSize=8;curved=0;rounded=0;entryX=0.897;entryY=1.028;entryDx=0;entryDy=0;entryPerimeter=0;" edge="1" parent="1" target="80fUx_5_ATNKXqXZNWFb-150">
          <mxGeometry relative="1" as="geometry">
            <mxPoint x="1070" y="520" as="sourcePoint" />
            <mxPoint x="990" y="520" as="targetPoint" />
          </mxGeometry>
        </mxCell>
        <mxCell id="80fUx_5_ATNKXqXZNWFb-182" value="&lt;br&gt;" style="html=1;verticalAlign=bottom;endArrow=open;dashed=1;endSize=8;curved=0;rounded=0;exitX=0.25;exitY=1;exitDx=0;exitDy=0;entryX=0.815;entryY=0.99;entryDx=0;entryDy=0;entryPerimeter=0;" edge="1" parent="1" source="80fUx_5_ATNKXqXZNWFb-148" target="80fUx_5_ATNKXqXZNWFb-101">
          <mxGeometry x="0.0005" relative="1" as="geometry">
            <mxPoint x="910" y="513" as="sourcePoint" />
            <mxPoint x="830" y="513" as="targetPoint" />
            <Array as="points">
              <mxPoint x="895" y="520" />
              <mxPoint x="190" y="520" />
            </Array>
            <mxPoint as="offset" />
          </mxGeometry>
        </mxCell>
        <mxCell id="80fUx_5_ATNKXqXZNWFb-184" value="&lt;br&gt;" style="html=1;verticalAlign=bottom;endArrow=open;dashed=1;endSize=8;curved=0;rounded=0;entryX=0.438;entryY=0;entryDx=0;entryDy=0;entryPerimeter=0;" edge="1" parent="1" target="80fUx_5_ATNKXqXZNWFb-98">
          <mxGeometry relative="1" as="geometry">
            <mxPoint x="850" y="40" as="sourcePoint" />
            <mxPoint x="770" y="40" as="targetPoint" />
            <Array as="points">
              <mxPoint x="130" y="40" />
            </Array>
          </mxGeometry>
        </mxCell>
        <mxCell id="80fUx_5_ATNKXqXZNWFb-185" value="" style="html=1;verticalAlign=bottom;endArrow=open;dashed=1;endSize=8;curved=0;rounded=0;entryX=1;entryY=0;entryDx=0;entryDy=0;" edge="1" parent="1" target="80fUx_5_ATNKXqXZNWFb-123">
          <mxGeometry relative="1" as="geometry">
            <mxPoint x="850" y="60" as="sourcePoint" />
            <mxPoint x="770" y="60" as="targetPoint" />
            <Array as="points">
              <mxPoint x="400" y="60" />
            </Array>
          </mxGeometry>
        </mxCell>
        <mxCell id="80fUx_5_ATNKXqXZNWFb-186" value="" style="html=1;verticalAlign=bottom;endArrow=open;dashed=1;endSize=8;curved=0;rounded=0;entryX=0.5;entryY=0;entryDx=0;entryDy=0;" edge="1" parent="1" target="80fUx_5_ATNKXqXZNWFb-127">
          <mxGeometry relative="1" as="geometry">
            <mxPoint x="850" y="80" as="sourcePoint" />
            <mxPoint x="770" y="80" as="targetPoint" />
            <Array as="points">
              <mxPoint x="510" y="80" />
            </Array>
          </mxGeometry>
        </mxCell>
        <mxCell id="80fUx_5_ATNKXqXZNWFb-187" value="&lt;br&gt;" style="html=1;verticalAlign=bottom;endArrow=open;dashed=1;endSize=8;curved=0;rounded=0;entryX=0.75;entryY=0;entryDx=0;entryDy=0;" edge="1" parent="1" target="80fUx_5_ATNKXqXZNWFb-130">
          <mxGeometry x="0.0013" relative="1" as="geometry">
            <mxPoint x="850" y="90" as="sourcePoint" />
            <mxPoint x="770" y="90" as="targetPoint" />
            <mxPoint as="offset" />
          </mxGeometry>
        </mxCell>
        <mxCell id="80fUx_5_ATNKXqXZNWFb-188" value="&lt;br&gt;" style="html=1;verticalAlign=bottom;endArrow=open;dashed=1;endSize=8;curved=0;rounded=0;entryX=0.644;entryY=1.033;entryDx=0;entryDy=0;entryPerimeter=0;exitX=0.594;exitY=0.042;exitDx=0;exitDy=0;exitPerimeter=0;" edge="1" parent="1">
          <mxGeometry relative="1" as="geometry">
            <mxPoint x="1159.4400000000005" y="508.5740000000001" as="sourcePoint" />
            <mxPoint x="1159.4399999999996" y="250.002" as="targetPoint" />
          </mxGeometry>
        </mxCell>
        <mxCell id="80fUx_5_ATNKXqXZNWFb-189" value="" style="endArrow=classic;html=1;rounded=0;entryX=1;entryY=0.5;entryDx=0;entryDy=0;" edge="1" parent="1" target="80fUx_5_ATNKXqXZNWFb-101">
          <mxGeometry width="50" height="50" relative="1" as="geometry">
            <mxPoint x="630" y="350" as="sourcePoint" />
            <mxPoint x="680" y="300" as="targetPoint" />
            <Array as="points">
              <mxPoint x="630" y="270" />
            </Array>
          </mxGeometry>
        </mxCell>
        <mxCell id="80fUx_5_ATNKXqXZNWFb-190" value="" style="endArrow=none;html=1;rounded=0;" edge="1" parent="1">
          <mxGeometry width="50" height="50" relative="1" as="geometry">
            <mxPoint x="250" y="350" as="sourcePoint" />
            <mxPoint x="250" y="270" as="targetPoint" />
          </mxGeometry>
        </mxCell>
        <mxCell id="80fUx_5_ATNKXqXZNWFb-191" value="" style="endArrow=none;html=1;rounded=0;exitX=0;exitY=0;exitDx=0;exitDy=0;" edge="1" parent="1" source="80fUx_5_ATNKXqXZNWFb-106">
          <mxGeometry width="50" height="50" relative="1" as="geometry">
            <mxPoint x="430" y="350" as="sourcePoint" />
            <mxPoint x="430" y="270" as="targetPoint" />
          </mxGeometry>
        </mxCell>
      </root>
    </mxGraphModel>
  </diagram>
</mxfile>
